<?xml version="1.0" encoding="UTF-8" standalone="no"?>
<!-- Created with Inkscape (http://www.inkscape.org/) -->

<svg
   fill="white"
   width="22.660923mm"
   height="22.738094mm"
   viewBox="0 0 22.660923 22.738094"
   version="1.1"
   id="svg5"
   xmlSpace="preserve"
   xmlns="http://www.w3.org/2000/svg"
   xmlnsSvg="http://www.w3.org/2000/svg"><defs
     id="defs2"><rect
       x="186.45404"
       y="326.43985"
       width="100.43909"
       height="39.828548"
       id="rect348" /></defs><g
     id="layer1"
     transform="translate(-54.161146,-59.36545)"><g
       aria-label="ZOO"
       transform="matrix(0.30391862,0,0,0.25189206,-2.9423151,-7.3697992)"
       id="text346"
       ><path
         d="m 188.25,331.42383 h 19.60937 v 3.64062 l -12.51562,15.14063 h 12.875 v 4.54687 h -20.32813 v -3.64062 L 200.40625,335.9707 H 188.25 Z"
         id="path6012" /><path
         d="m 223.25,335.36133 q -2.75,0 -4.26563,2.03125 -1.51562,2.03125 -1.51562,5.71875 0,3.67187 1.51562,5.70312 1.51563,2.03125 4.26563,2.03125 2.76562,0 4.28125,-2.03125 1.51562,-2.03125 1.51562,-5.70312 0,-3.6875 -1.51562,-5.71875 -1.51563,-2.03125 -4.28125,-2.03125 z m 0,-4.35938 q 5.625,0 8.8125,3.21875 3.1875,3.21875 3.1875,8.89063 0,5.65625 -3.1875,8.875 -3.1875,3.21875 -8.8125,3.21875 -5.60938,0 -8.8125,-3.21875 -3.1875,-3.21875 -3.1875,-8.875 0,-5.67188 3.1875,-8.89063 3.20312,-3.21875 8.8125,-3.21875 z"
         id="path6014" /><path
         d="m 250.45312,335.36133 q -2.75,0 -4.26562,2.03125 -1.51563,2.03125 -1.51563,5.71875 0,3.67187 1.51563,5.70312 1.51562,2.03125 4.26562,2.03125 2.76563,0 4.28125,-2.03125 1.51563,-2.03125 1.51563,-5.70312 0,-3.6875 -1.51563,-5.71875 -1.51562,-2.03125 -4.28125,-2.03125 z m 0,-4.35938 q 5.625,0 8.8125,3.21875 3.1875,3.21875 3.1875,8.89063 0,5.65625 -3.1875,8.875 -3.1875,3.21875 -8.8125,3.21875 -5.60937,0 -8.8125,-3.21875 -3.1875,-3.21875 -3.1875,-8.875 0,-5.67188 3.1875,-8.89063 3.20313,-3.21875 8.8125,-3.21875 z"
         id="path6016" /></g><a
       id="a699"
       transform="matrix(0.86881662,0,0,0.67433775,10.673368,22.238904)"><path
         style="stroke-width:0.29765"
         d="m 63.839613,68.631662 4.054624,-8.540907 -1.725576,-1.629937 -3.71538,10.192596 z"
         id="path835" /><path
         style="stroke-width:0.29765"
         d="m 64.16815,57.116595 1.259736,0.978641 -3.818959,10.496947 -2.569837,0.03964 z"
         id="path837" /><path
         style="stroke-width:0.29765"
         d="m 56.631511,68.574972 1.490435,-0.01068 1.965027,-6.033661 -1.58313,-3.779076 -2.037469,1.20219 1.856255,3.663094 z"
         id="path839" /><path
         style="stroke-width:0.29765"
         d="m 54.715,62.622385 1.262684,-1.792239 1.023046,3.352919 -1.295821,4.476668 -1.312018,-0.0027 1.209315,-4.209186 z"
         id="path841" /><path
         style="stroke-width:0.29765"
         d="m 52.856194,64.361551 1.084627,-1.245095 0.978324,1.645865 -1.395083,3.902763 -1.010184,-0.0081 0.935511,-2.889199 z"
         id="path843" /><path
         style="fill:white;stroke-width:0.29765"
         d="m 52.181895,64.754734 -1.4727,1.348409 -0.528529,1.679398 0.646723,1.007689 1.220875,0.0046 0.553273,-2.703365 z"
         id="path845" /><path
         style="fill:white;stroke-width:0.29765"
         d="m 59.910144,60.676883 0.955941,-1.770235 1.180376,-0.01041 -0.297673,1.60582 z"
         id="path847" /><path
         style="fill:white;stroke-width:0.29765"
         d="m 62.285315,56.033199 1.090792,0.700242 -1.048163,1.838403 -0.915493,-0.581406 z"
         id="path849" /><path
         style="fill:white;stroke-width:0.29765"
         d="m 60.017308,55.056307 -1.157473,3.270929 1.434366,-0.227663 1.451209,-2.908976 z"
         id="path851" /></a><path
       style="fill:white;stroke-width:0.351494"
       d="m 70.665813,63.224024 -3.412996,5.378237 1.966895,-0.0013 2.737372,-4.63943 z"
       id="path543" /><path
       style="fill:white;stroke-width:0.351494"
       d="m 70.38246,68.597406 1.875092,-0.01982 1.248121,-3.325052 -0.874538,-0.722968 z"
       id="path545" /><path
       style="stroke-width:0.351494"
       d="m 73.031419,68.599878 1.021967,-2.826072 1.137014,1.145863 -1.124382,1.69532 z"
       id="path547" /><path
       style="fill:white;stroke-width:0.351494"
       d="m 75.797788,67.491637 -0.74926,1.111895 1.683714,0.0063 z"
       id="path549" /><g
       aria-label="SHOE"
       transform="matrix(0.92901458,0,0,1.0175367,0.53038247,3.5513554)"
       id="text425"
       style="font-weight:bold;font-size:8.20152px;-inkscape-font-specification:'sans-serif Bold';stroke-width:0.256297"><path
         d="m 62.145981,64.885563 v 1.265469 q -0.492572,-0.220256 -0.961116,-0.332386 -0.468544,-0.11213 -0.885027,-0.11213 -0.552642,0 -0.816949,0.152177 -0.264306,0.152176 -0.264306,0.472548 0,0.240279 0.176204,0.376437 0.180209,0.132154 0.648753,0.228265 l 0.656762,0.132154 q 0.997158,0.200232 1.417646,0.608706 0.420488,0.408474 0.420488,1.161348 0,0.989148 -0.588683,1.473711 -0.584679,0.480558 -1.790078,0.480558 -0.56866,0 -1.141325,-0.108126 -0.572665,-0.108125 -1.145329,-0.320372 v -1.301511 q 0.572664,0.304354 1.105283,0.460535 0.536623,0.152177 1.033199,0.152177 0.504586,0 0.772897,-0.168196 0.268312,-0.168195 0.268312,-0.480557 0,-0.280326 -0.184214,-0.432502 -0.180209,-0.152177 -0.724842,-0.272316 l -0.596692,-0.132154 q -0.897042,-0.192223 -1.313525,-0.612711 -0.412479,-0.420488 -0.412479,-1.133316 0,-0.893036 0.57667,-1.373594 0.576669,-0.480558 1.657924,-0.480558 0.492572,0 1.013176,0.07609 0.520604,0.07208 1.077251,0.220254 z"
         id="path6003" /><path
         d="m 63.892007,64.697345 h 1.54179 v 2.278645 h 2.27464 v -2.278645 h 1.54179 v 5.97894 h -1.54179 v -2.534943 h -2.27464 v 2.534943 h -1.54179 z"
         id="path6005" /><path
         d="m 73.487145,65.706516 q -0.704818,0 -1.093269,0.520604 -0.38845,0.520605 -0.38845,1.465702 0,0.941092 0.38845,1.461696 0.388451,0.520605 1.093269,0.520605 0.708823,0 1.097274,-0.520605 0.388451,-0.520604 0.388451,-1.461696 0,-0.945097 -0.388451,-1.465702 -0.388451,-0.520604 -1.097274,-0.520604 z m 0,-1.117297 q 1.441674,0 2.258622,0.824958 0.816948,0.824957 0.816948,2.278645 0,1.449682 -0.816948,2.27464 -0.816948,0.824958 -2.258622,0.824958 -1.437668,0 -2.258621,-0.824958 -0.816949,-0.824958 -0.816949,-2.27464 0,-1.453688 0.816949,-2.278645 0.820953,-0.824958 2.258621,-0.824958 z"
         id="path6007" /><path
         d="m 77.728067,64.697345 h 4.16083 v 1.165352 h -2.61904 v 1.113293 h 2.462858 v 1.165352 h -2.462858 v 1.36959 h 2.707142 v 1.165353 h -4.248932 z"
         id="path6009" /></g></g></svg>
